<svg xmlns="http://www.w3.org/2000/svg" width="30" height="93" viewBox="0 0 30 93" fill="none"><path d="M13.5858 92.4142C14.3668 93.1953 15.6332 93.1953 16.4142 92.4142L29.1421 79.6863C29.9232 78.9052 29.9232 77.6389 29.1421 76.8579C28.3611 76.0768 27.0948 76.0768 26.3137 76.8579L15 88.1716L3.68629 76.8579C2.90524 76.0768 1.63891 76.0768 0.857861 76.8579C0.0768122 77.6389 0.0768122 78.9052 0.857861 79.6863L13.5858 92.4142ZM15 0L13 -8.74228e-08L13 91L15 91L17 91L17 8.74228e-08L15 0Z" fill="url(#paint0_linear_1_1337)" style=""></path><defs><linearGradient id="paint0_linear_1_1337" x1="15" y1="45.5" x2="14" y2="45.5" gradientUnits="userSpaceOnUse"><stop stop-color="#5F7FFF" style="stop-color:#5F7FFF;stop-color:color(display-p3 0.3736 0.4997 1.0000);stop-opacity:1;"></stop><stop offset="1" stop-color="#3B5BDA" style="stop-color:#3B5BDA;stop-color:color(display-p3 0.2314 0.3569 0.8549);stop-opacity:1;"></stop></linearGradient></defs></svg>