<svg xmlns="http://www.w3.org/2000/svg" width="99" height="99" viewBox="0 0 99 99" fill="none"><rect x="96.7934" y="49.499" width="66.8793" height="66.8793" rx="17.1636" transform="rotate(135 96.7934 49.499)" fill="url(#paint0_linear_1_1723)" style=""></rect><rect x="96.7934" y="49.499" width="66.8793" height="66.8793" rx="17.1636" transform="rotate(135 96.7934 49.499)" stroke="white" style="stroke:white;stroke-opacity:1;" stroke-width="3.12065"></rect><rect x="96.7934" y="49.499" width="66.8793" height="66.8793" rx="17.1636" transform="rotate(135 96.7934 49.499)" stroke="#4669F4" style="stroke:#4669F4;stroke:color(display-p3 0.2745 0.4118 0.9569);stroke-opacity:1;" stroke-width="3.12065"></rect><g clip-path="url(#clip0_1_1723)"><path d="M59.4024 39.6005C60.1908 40.3889 60.9563 41.1826 61.6987 41.9781C65.5427 46.1032 65.5427 52.5449 61.6987 56.67C60.9572 57.4664 60.1908 58.2592 59.4024 59.0477C58.614 59.8361 57.8203 60.6015 57.0248 61.344C52.8997 65.188 46.4579 65.188 42.3328 61.344C41.5365 60.6024 40.7436 59.8361 39.9552 59.0477C39.1668 58.2592 38.4013 57.4655 37.6589 56.67C33.814 52.5441 33.814 46.1023 37.6589 41.9763C38.4004 41.18 39.1668 40.3871 39.9552 39.5987C40.7436 38.8103 41.5374 38.0448 42.3328 37.3024C46.457 33.4592 52.8988 33.4592 57.0239 37.305C57.8203 38.0466 58.614 38.812 59.4024 39.6005ZM49.3783 41.4575C48.6544 41.4849 48.0887 42.0948 48.1179 42.8187L48.5112 53.1451L44.9792 50.2689C44.722 50.0595 44.4082 49.9631 44.1006 49.9755C43.7373 49.9887 43.3802 50.1531 43.1328 50.459C42.6758 51.0202 42.7598 51.8467 43.3228 52.3036L48.7799 56.7425C49.106 57.0492 49.5312 57.2092 49.9784 57.1915C50.423 57.1747 50.8349 56.9838 51.0736 56.7186L56.2416 51.8104C56.7684 51.3119 56.7888 50.4802 56.2911 49.956C56.0198 49.6705 55.6521 49.5344 55.2888 49.5477C54.9821 49.5592 54.6772 49.6785 54.4359 49.9074L51.1346 53.0461L50.7403 42.7188C50.7129 41.9949 50.1022 41.4301 49.3783 41.4575Z" fill="white" style="fill:white;fill-opacity:1;"></path></g><defs><linearGradient id="paint0_linear_1_1723" x1="134" y1="49.499" x2="134" y2="119.499" gradientUnits="userSpaceOnUse"><stop stop-color="#5F7FFF" style="stop-color:#5F7FFF;stop-color:color(display-p3 0.3736 0.4997 1.0000);stop-opacity:1;"></stop><stop offset="1" stop-color="#3B5BDA" style="stop-color:#3B5BDA;stop-color:color(display-p3 0.2314 0.3569 0.8549);stop-opacity:1;"></stop></linearGradient><clipPath id="clip0_1_1723"><rect width="30" height="30" fill="white" style="fill:white;fill-opacity:1;" transform="matrix(-0.707107 0.707107 0.707107 0.707107 49.5025 28.2861)"></rect></clipPath></defs></svg>