<svg xmlns="http://www.w3.org/2000/svg" width="653" height="236" viewBox="0 0 653 236" fill="none"><path d="M144.98 32.116L141.33 33.296C141.268 33.3169 141.212 33.3546 141.17 33.4048C141.128 33.455 141.1 33.5158 141.089 33.5807C141.079 33.6456 141.087 33.7121 141.111 33.773C141.136 33.8338 141.177 33.8867 141.23 33.926C142.677 34.9393 144.097 36.106 145.49 37.426C146.117 38.0193 147.663 38.5026 150.13 38.876C156.477 46.9693 162.26 55.1193 167.48 63.326C167.832 63.887 168.006 64.5417 167.977 65.2027C167.949 65.8637 167.72 66.4997 167.32 67.026L167.28 67.086C167.114 67.307 166.9 67.4881 166.656 67.6143C166.411 67.7406 166.142 67.8085 165.872 67.8124C165.602 67.8163 165.338 67.7561 165.101 67.6368C164.864 67.5175 164.662 67.3424 164.51 67.126L160.77 61.786C159.5 60.1361 159.184 59.6361 158.48 58.416C151.767 48.1226 143.52 37.956 133.74 27.916C126.71 20.706 116.81 13.126 107.22 12.116C99.8 11.336 92 15.126 86.12 19.506C73.9 28.616 65.13 39.796 54.43 54.316C53.0567 56.1893 49.3667 61.9193 43.36 71.506C37.58 80.746 31.93 92.046 27.72 100.246C26.12 103.373 24.98 105.769 24.3 107.436C21.9 113.366 19.82 116.916 17.94 122.426C17.3933 124.033 16.3467 126.596 14.8 130.116C12.44 135.489 9.99333 143.849 7.46 155.196C7.34682 155.695 7.19641 156.187 7.01 156.666C6.22333 158.686 5.79 160.003 5.71 160.616C4.82 167.536 4.33 174.326 5.35 180.696C5.53667 181.869 6.09 183.643 7.01 186.016C11.01 196.289 18.12 204.646 28.34 211.086C35.1467 215.379 42.0533 218.756 49.06 221.216C63.4933 226.283 78.69 229.406 94.65 230.586C111.05 231.806 127.91 229.876 144.09 226.166C155.477 223.559 165.61 219.943 174.49 215.316C180.39 212.243 185.463 208.836 189.71 205.096C192.19 202.909 195.12 199.593 198.5 195.146C202.193 190.286 204.277 184.523 204.75 177.856C205.397 168.803 204.523 159.979 202.13 151.386C199.457 141.813 196.647 133.396 193.7 126.136C192.207 122.469 190.89 119.103 189.75 116.036C188.63 113.036 187.02 110.176 185.55 107.306C185 106.232 179.367 95.2068 179 94.0001C178.52 92.4068 185.34 102.143 185.16 101.256C185.076 100.807 185.135 100.345 185.33 99.936L184.648 89.0001C186.702 94.3068 191.013 107.526 193.32 112.746C196.73 120.436 199.76 128.136 201.92 133.946C203.553 138.346 204.717 142.429 205.41 146.196C206.03 149.556 208.11 152.976 208.14 156.626C208.2 163.926 208.193 173.673 208.12 185.866C208.12 186.655 207.939 187.432 207.59 188.136L203.38 196.716C203.347 196.789 203.307 196.859 203.26 196.926C199.26 202.673 194.797 207.453 189.87 211.266C184.02 215.786 176.33 220.316 169.16 223.256C159.733 227.129 151.587 229.823 144.72 231.336C139 232.603 130.35 234.036 118.77 235.636H91.51C79.0233 233.856 71.11 232.589 67.77 231.836C49.11 227.646 29.88 220.386 16.19 207.706C10.2633 202.213 6.08667 196.463 3.66 190.456C2.87333 188.503 1.65333 184.349 0 177.996V167.446C2.47333 155.773 4.32333 147.536 5.55 142.736C5.73 142.016 6.25333 140.749 7.12 138.936C7.43914 138.264 7.68714 137.564 7.86 136.846C8.56667 133.846 9.99333 129.653 12.14 124.266C19.56 105.679 28.3367 87.786 38.47 70.586C45.63 58.426 53.7 46.8326 62.68 35.806C71.04 25.546 80.96 16.066 92.26 10.146C100.66 5.75597 110.36 6.07597 118.63 10.386C128.95 15.776 136.59 24.156 144.98 32.116Z" fill="black" style="fill:black;fill-opacity:1;"></path><path d="M150.13 39.24C147.663 38.8667 146.117 38.3833 145.49 37.79C144.097 36.47 142.677 35.3033 141.23 34.29C141.177 34.2508 141.136 34.1978 141.111 34.137C141.087 34.0761 141.079 34.0096 141.089 33.9447C141.1 33.8798 141.128 33.819 141.17 33.7688C141.212 33.7186 141.268 33.681 141.33 33.66L144.98 32.48C147.707 33.5667 150.63 33.8566 153.75 33.35C154.16 33.2856 154.534 33.0758 154.803 32.7585C155.073 32.4413 155.221 32.0375 155.22 31.62V25.29C155.22 24.916 155.369 24.5574 155.633 24.293C155.897 24.0285 156.256 23.88 156.63 23.88H159.63C159.869 23.88 160.106 23.9273 160.326 24.0193C160.547 24.1113 160.748 24.2461 160.917 24.416C161.086 24.5859 161.22 24.7877 161.311 25.0097C161.403 25.2317 161.45 25.4697 161.45 25.71V36.71C161.45 36.9174 161.406 37.1226 161.322 37.3121C161.238 37.5016 161.114 37.6712 160.96 37.81C158.68 39.83 153.43 38.95 150.13 39.24Z" fill="#1C64E3" style="fill:#1C64E3;fill:color(display-p3 0.1098 0.3922 0.8902);fill-opacity:1;"></path><path d="M180.31 85.25C180.03 87.15 180.04 88.71 180.34 89.93C181.24 93.57 181.98 97.2833 182.56 101.07L174.32 83.67C174.261 83.5423 174.231 83.4027 174.235 83.2621C174.238 83.1214 174.273 82.9837 174.338 82.8596C174.403 82.7355 174.496 82.6285 174.609 82.547C174.722 82.4656 174.852 82.4118 174.99 82.39C177.52 81.99 178.54 83.98 180.31 85.25Z" fill="black" style="fill:black;fill-opacity:1;"></path><path d="M227.33 35.05V62.63C227.33 62.7896 227.274 62.9443 227.172 63.0667C227.069 63.1892 226.927 63.2718 226.77 63.3C223.11 63.93 220.88 64.38 217.41 64.37C208.61 64.33 201.537 64.3267 196.19 64.36C195.396 64.3636 194.631 64.0613 194.053 63.5157C193.476 62.9701 193.131 62.2232 193.09 61.43L193.07 61.19C193.051 60.8212 193.107 60.4524 193.235 60.106C193.364 59.7597 193.561 59.4431 193.815 59.1755C194.07 58.9079 194.376 58.6949 194.716 58.5496C195.055 58.4042 195.421 58.3295 195.79 58.33C204.97 58.33 212.2 58.4067 217.48 58.56C219.14 58.6067 219.92 57.8433 219.82 56.27C219.467 50.5233 219.45 45.68 219.77 41.74C219.917 39.9533 219.143 39.0633 217.45 39.07C205.463 39.1367 194.233 39.1466 183.76 39.1C181.413 39.0933 180.253 37.8867 180.28 35.48C180.373 24.8533 180.383 15.8933 180.31 8.59999C180.305 8.14025 180.118 7.70128 179.79 7.379C179.462 7.05672 179.02 6.87731 178.56 6.87999L158.22 7.01999C157.818 7.02301 157.419 6.94422 157.047 6.78835C156.676 6.63249 156.34 6.40278 156.06 6.11309C155.78 5.8234 155.561 5.47973 155.416 5.1028C155.272 4.72588 155.205 4.32352 155.22 3.91999L155.24 3.65999C155.237 2.80944 155.572 1.99238 156.172 1.38721C156.771 0.782039 157.587 0.437918 158.44 0.429986C170 0.349986 178.35 0.423319 183.49 0.649986C186.6 0.789986 186.2 5.47999 186.25 7.99999C186.31 10.5067 186.27 18.48 186.13 31.92C186.127 32.1124 186.163 32.3035 186.236 32.4818C186.309 32.6602 186.417 32.8222 186.555 32.9583C186.692 33.0944 186.855 33.2019 187.034 33.2743C187.214 33.3467 187.406 33.3827 187.6 33.38C195.193 33.3 205.747 33.2933 219.26 33.36C220.94 33.3667 223.437 33.6966 226.75 34.35C226.913 34.3804 227.061 34.4671 227.167 34.595C227.273 34.7229 227.33 34.8839 227.33 35.05Z" fill="#1C64E3" style="fill:#1C64E3;fill:color(display-p3 0.1098 0.3922 0.8902);fill-opacity:1;"></path><path d="M159.976 13.6684L156.798 13.5741C155.887 13.5471 155.126 14.2636 155.099 15.1744L155.023 17.7333C154.996 18.6442 155.713 19.4045 156.624 19.4315L159.802 19.5259C160.713 19.5529 161.474 18.8364 161.501 17.9255L161.577 15.3667C161.604 14.4558 160.887 13.6955 159.976 13.6684Z" fill="#1C64E3" style="fill:#1C64E3;fill:color(display-p3 0.1098 0.3922 0.8902);fill-opacity:1;"></path><path d="M171.856 72.9194C170.823 71.6446 169.433 71.0592 168.751 71.6119C168.068 72.1645 168.352 73.6459 169.384 74.9206C170.417 76.1953 171.807 76.7807 172.489 76.2281C173.172 75.6755 172.888 74.1941 171.856 72.9194Z" fill="black" style="fill:black;fill-opacity:1;"></path><path d="M165.36 117.28L161.36 116C161.084 115.91 160.849 115.718 160.7 115.46C152.59 101.26 140.38 90.59 124.67 85.35C124.257 85.21 121.453 84.5233 116.26 83.29C113.527 82.6433 110.663 82.3 107.67 82.26C102.323 82.18 98.75 82.3333 96.95 82.72C93.2767 83.5067 90.6467 84.07 89.06 84.41C81.75 85.99 73.39 90.41 68.21 94.22C53.67 104.907 45.0733 119.573 42.42 138.22C42.2333 139.56 42.2267 143.08 42.4 148.78C42.52 152.7 42.9467 156.183 43.68 159.23C45.9533 168.663 50.1733 177.247 56.34 184.98C56.4893 185.169 56.5876 185.394 56.6254 185.632C56.6631 185.87 56.6391 186.113 56.5556 186.339C56.4721 186.564 56.332 186.764 56.1488 186.918C55.9656 187.072 55.7456 187.176 55.51 187.22L53.92 187.52C53.442 187.61 52.9482 187.562 52.4966 187.381C52.045 187.2 51.6542 186.895 51.37 186.5C44.0033 176.193 39.4533 165.72 37.72 155.08C36.77 149.17 36.45 138.78 38.5 132.06C39.52 128.75 39.78 126.05 41.17 122.5C49.8167 100.26 65.7067 85.8067 88.84 79.14C90.6067 78.6333 95.7467 77.96 104.26 77.12C105.98 76.9533 111.543 77.5866 120.95 79.02C121.655 79.133 122.342 79.3208 123 79.58C126.3 80.89 129.31 81.68 132.21 83C145.497 89.0333 156.007 98.4533 163.74 111.26C164.867 113.127 165.59 114.973 165.91 116.8C165.922 116.873 165.915 116.949 165.89 117.019C165.865 117.089 165.823 117.151 165.768 117.199C165.712 117.248 165.646 117.281 165.574 117.295C165.503 117.309 165.429 117.304 165.36 117.28Z" fill="black" style="fill:black;fill-opacity:1;"></path><path d="M158.1 183.73L158.24 183.77C158.478 183.839 158.695 183.966 158.873 184.139C159.05 184.312 159.182 184.526 159.257 184.762C159.332 184.999 159.348 185.25 159.303 185.493C159.258 185.737 159.154 185.966 159 186.16C150.747 196.547 140.783 204.02 129.11 208.58C126.483 209.607 124.267 210.307 122.46 210.68C119.12 211.37 116.54 212.45 113.37 212.77C109.11 213.19 104.497 213.273 99.53 213.02C94.47 212.76 90.35 211.17 85.41 210.15C84.0833 209.877 82.27 209.23 79.97 208.21C73.65 205.4 69.11 202.89 63.46 198.59C62.9539 198.203 62.5802 197.669 62.3904 197.06C62.2006 196.451 62.2039 195.798 62.4 195.19L62.64 194.45C62.7093 194.237 62.8286 194.044 62.9878 193.887C63.147 193.73 63.3414 193.614 63.5544 193.548C63.7675 193.482 63.9928 193.469 64.2114 193.509C64.43 193.55 64.6354 193.643 64.81 193.78C72.97 200.16 83.9 205.74 94.37 207.12C100.163 207.88 106.267 207.95 112.68 207.33C126.12 206.023 138.023 200.453 148.39 190.62C150.123 188.973 152.123 186.997 154.39 184.69C154.865 184.21 155.461 183.867 156.114 183.698C156.767 183.529 157.453 183.54 158.1 183.73Z" fill="black" style="fill:black;fill-opacity:1;"></path><path d="M240.091 118L271.605 47.2945H287.767L319.382 118H302.211L276.353 55.5772H282.817L256.858 118H240.091ZM255.848 102.849L260.191 90.4249H296.554L300.999 102.849H255.848Z" fill="#1C64E3" style="fill:#1C64E3;fill:color(display-p3 0.1098 0.3922 0.8902);fill-opacity:1;"></path><path d="M350.354 118.505C345.101 118.505 340.387 117.36 336.212 115.071C332.105 112.714 328.873 109.515 326.516 105.475C324.159 101.367 322.98 96.6873 322.98 91.4349C322.98 86.1152 324.159 81.4352 326.516 77.3948C328.873 73.3545 332.105 70.1896 336.212 67.9001C340.387 65.6106 345.101 64.4658 350.354 64.4658C354.865 64.4658 358.939 65.3412 362.576 67.092C366.212 68.8429 369.074 71.4691 371.161 74.9707L365.808 78.6069C363.99 75.9134 361.734 73.9269 359.04 72.6475C356.347 71.368 353.417 70.7283 350.253 70.7283C346.482 70.7283 343.081 71.6037 340.051 73.3545C337.021 75.038 334.63 77.4285 332.879 80.5261C331.128 83.6237 330.253 87.2599 330.253 91.4349C330.253 95.6099 331.128 99.2462 332.879 102.344C334.63 105.441 337.021 107.866 340.051 109.616C343.081 111.3 346.482 112.142 350.253 112.142C353.417 112.142 356.347 111.502 359.04 110.222C361.734 108.943 363.99 106.99 365.808 104.364L371.161 108C369.074 111.434 366.212 114.061 362.576 115.879C358.939 117.63 354.865 118.505 350.354 118.505Z" fill="black" style="fill:black;fill-opacity:1;"></path><path d="M405.977 118.505C400.86 118.505 396.247 117.36 392.139 115.071C388.099 112.714 384.9 109.515 382.544 105.475C380.187 101.367 379.008 96.6873 379.008 91.4349C379.008 86.1152 380.187 81.4352 382.544 77.3948C384.9 73.3545 388.099 70.1896 392.139 67.9001C396.18 65.6106 400.792 64.4658 405.977 64.4658C411.23 64.4658 415.876 65.6106 419.916 67.9001C424.024 70.1896 427.223 73.3545 429.512 77.3948C431.869 81.4352 433.047 86.1152 433.047 91.4349C433.047 96.6873 431.869 101.367 429.512 105.475C427.223 109.515 424.024 112.714 419.916 115.071C415.809 117.36 411.162 118.505 405.977 118.505ZM405.977 112.142C409.816 112.142 413.216 111.3 416.179 109.616C419.142 107.866 421.465 105.441 423.149 102.344C424.899 99.1789 425.775 95.5426 425.775 91.4349C425.775 87.2599 424.899 83.6237 423.149 80.5261C421.465 77.4285 419.142 75.038 416.179 73.3545C413.216 71.6037 409.849 70.7283 406.078 70.7283C402.307 70.7283 398.94 71.6037 395.978 73.3545C393.015 75.038 390.658 77.4285 388.907 80.5261C387.156 83.6237 386.281 87.2599 386.281 91.4349C386.281 95.5426 387.156 99.1789 388.907 102.344C390.658 105.441 393.015 107.866 395.978 109.616C398.94 111.3 402.274 112.142 405.977 112.142Z" fill="black" style="fill:black;fill-opacity:1;"></path><path d="M447.689 118V64.9709H454.557V79.415L453.85 76.8898C455.332 72.8495 457.823 69.7856 461.325 67.6981C464.826 65.5433 469.17 64.4658 474.355 64.4658V71.4354C474.086 71.4354 473.816 71.4354 473.547 71.4354C473.277 71.368 473.008 71.3344 472.739 71.3344C467.15 71.3344 462.773 73.0515 459.608 76.4858C456.443 79.8527 454.86 84.6674 454.86 90.9299V118H447.689Z" fill="black" style="fill:black;fill-opacity:1;"></path><path d="M508.058 118.505C503.008 118.505 498.463 117.36 494.422 115.071C490.449 112.781 487.318 109.616 485.029 105.576C482.739 101.468 481.594 96.7547 481.594 91.4349C481.594 86.0478 482.739 81.3342 485.029 77.2938C487.318 73.2535 490.449 70.1223 494.422 67.9001C498.463 65.6106 503.008 64.4658 508.058 64.4658C512.705 64.4658 516.846 65.5096 520.482 67.5971C524.186 69.6846 527.115 72.7485 529.27 76.7888C531.492 80.7618 532.603 85.6438 532.603 91.4349C532.603 97.1587 531.526 102.041 529.371 106.081C527.216 110.121 524.287 113.219 520.583 115.374C516.947 117.461 512.772 118.505 508.058 118.505ZM508.563 112.142C512.334 112.142 515.701 111.3 518.664 109.616C521.694 107.866 524.051 105.441 525.735 102.344C527.486 99.1789 528.361 95.5426 528.361 91.4349C528.361 87.2599 527.486 83.6237 525.735 80.5261C524.051 77.4285 521.694 75.038 518.664 73.3545C515.701 71.6037 512.334 70.7283 508.563 70.7283C504.86 70.7283 501.526 71.6037 498.564 73.3545C495.601 75.038 493.244 77.4285 491.493 80.5261C489.742 83.6237 488.867 87.2599 488.867 91.4349C488.867 95.5426 489.742 99.1789 491.493 102.344C493.244 105.441 495.601 107.866 498.564 109.616C501.526 111.3 504.86 112.142 508.563 112.142ZM528.563 118V102.041L529.27 91.3339L528.26 80.6271V43.0522H535.431V118H528.563Z" fill="black" style="fill:black;fill-opacity:1;"></path><path d="M577.929 118.505C572.407 118.505 567.559 117.36 563.384 115.071C559.209 112.714 555.943 109.515 553.586 105.475C551.229 101.367 550.051 96.6873 550.051 91.4349C550.051 86.1825 551.162 81.5362 553.384 77.4958C555.674 73.4555 558.771 70.2906 562.677 68.0011C566.65 65.6443 571.094 64.4658 576.01 64.4658C580.993 64.4658 585.404 65.6106 589.242 67.9001C593.147 70.1223 596.211 73.2872 598.434 77.3948C600.656 81.4352 601.767 86.1152 601.767 91.4349C601.767 91.7716 601.733 92.142 601.666 92.546C601.666 92.8827 601.666 93.2531 601.666 93.6571H555.505V88.3037H597.827L594.999 90.4249C594.999 86.5866 594.158 83.186 592.474 80.2231C590.858 77.1928 588.636 74.836 585.808 73.1525C582.979 71.469 579.713 70.6273 576.01 70.6273C572.373 70.6273 569.108 71.469 566.212 73.1525C563.316 74.836 561.061 77.1928 559.445 80.2231C557.828 83.2533 557.02 86.7212 557.02 90.6269V91.738C557.02 95.7783 557.896 99.3472 559.647 102.445C561.465 105.475 563.956 107.866 567.121 109.616C570.353 111.3 574.023 112.142 578.131 112.142C581.363 112.142 584.36 111.569 587.121 110.424C589.949 109.28 592.373 107.529 594.393 105.172L598.434 109.818C596.077 112.647 593.114 114.801 589.545 116.283C586.043 117.764 582.171 118.505 577.929 118.505Z" fill="black" style="fill:black;fill-opacity:1;"></path><path d="M630.606 118.505C626.229 118.505 622.088 117.899 618.182 116.687C614.276 115.407 611.213 113.825 608.99 111.94L612.223 106.283C614.377 107.899 617.138 109.313 620.505 110.525C623.872 111.67 627.407 112.243 631.111 112.243C636.161 112.243 639.798 111.468 642.02 109.919C644.242 108.303 645.353 106.182 645.353 103.556C645.353 101.603 644.714 100.088 643.434 99.0105C642.222 97.8658 640.606 97.024 638.586 96.4853C636.566 95.8793 634.31 95.3742 631.818 94.9702C629.327 94.5662 626.835 94.0948 624.344 93.5561C621.919 93.0174 619.697 92.243 617.677 91.2329C615.657 90.1555 614.007 88.7077 612.728 86.8896C611.516 85.0714 610.91 82.6472 610.91 79.617C610.91 76.7215 611.718 74.1289 613.334 71.8394C614.95 69.5499 617.307 67.7654 620.404 66.486C623.569 65.1392 627.408 64.4658 631.919 64.4658C635.353 64.4658 638.788 64.9372 642.222 65.88C645.656 66.7554 648.484 67.9338 650.707 69.4152L647.575 75.1727C645.219 73.5565 642.693 72.4118 640 71.7384C637.306 70.9977 634.613 70.6273 631.919 70.6273C627.138 70.6273 623.603 71.469 621.313 73.1525C619.091 74.7686 617.98 76.8561 617.98 79.415C617.98 81.4352 618.586 83.0176 619.798 84.1624C621.078 85.3071 622.727 86.2162 624.748 86.8896C626.835 87.4956 629.091 88.0007 631.515 88.4047C634.007 88.8087 636.465 89.3138 638.889 89.9198C641.38 90.4585 643.636 91.2329 645.656 92.243C647.744 93.1857 649.393 94.5662 650.606 96.3843C651.885 98.1351 652.525 100.458 652.525 103.354C652.525 106.451 651.649 109.145 649.899 111.434C648.215 113.657 645.724 115.407 642.424 116.687C639.192 117.899 635.252 118.505 630.606 118.505Z" fill="black" style="fill:black;fill-opacity:1;"></path><path d="M323.481 175.366C323.481 168.052 325.064 161.546 328.229 155.85C331.393 150.083 335.789 145.617 341.415 142.452C347.112 139.217 353.547 137.599 360.721 137.599C369.512 137.599 377.037 139.92 383.296 144.562C389.556 149.204 393.74 155.533 395.85 163.551H376.017C374.54 160.456 372.43 158.1 369.688 156.483C367.015 154.865 363.956 154.056 360.51 154.056C354.954 154.056 350.453 155.99 347.006 159.859C343.56 163.727 341.837 168.896 341.837 175.366C341.837 181.836 343.56 187.006 347.006 190.874C350.453 194.742 354.954 196.676 360.51 196.676C363.956 196.676 367.015 195.867 369.688 194.25C372.43 192.632 374.54 190.276 376.017 187.181H395.85C393.74 195.199 389.556 201.529 383.296 206.17C377.037 210.742 369.512 213.027 360.721 213.027C353.547 213.027 347.112 211.445 341.415 208.28C335.789 205.045 331.393 200.579 328.229 194.882C325.064 189.186 323.481 182.68 323.481 175.366Z" fill="#1C64E3" style="fill:#1C64E3;fill:color(display-p3 0.1098 0.3922 0.8902);fill-opacity:1;"></path><path d="M418.08 164.078C419.768 160.773 422.159 158.206 425.253 156.377C428.418 154.549 432.251 153.634 436.752 153.634V163.551H434.22C423.46 163.551 418.08 169.388 418.08 181.063V212.5H408.48V154.689H418.08V164.078Z" fill="black" style="fill:black;fill-opacity:1;"></path><path d="M452.792 145.3C450.964 145.3 449.416 144.667 448.15 143.401C446.884 142.136 446.251 140.588 446.251 138.76C446.251 136.931 446.884 135.384 448.15 134.118C449.416 132.852 450.964 132.219 452.792 132.219C454.55 132.219 456.027 132.852 457.223 134.118C458.489 135.384 459.122 136.931 459.122 138.76C459.122 140.588 458.489 142.136 457.223 143.401C456.027 144.667 454.55 145.3 452.792 145.3ZM457.434 154.689V212.5H447.834V154.689H457.434Z" fill="black" style="fill:black;fill-opacity:1;"></path><path d="M494.261 213.449C489.83 213.449 485.857 212.711 482.34 211.234C478.824 209.687 476.046 207.577 474.006 204.904C471.967 202.162 470.841 199.032 470.63 195.515H480.547C480.828 198.399 482.164 200.755 484.556 202.584C487.017 204.412 490.217 205.326 494.156 205.326C497.813 205.326 500.696 204.518 502.806 202.9C504.916 201.282 505.971 199.243 505.971 196.781C505.971 194.25 504.846 192.386 502.595 191.19C500.345 189.924 496.863 188.694 492.151 187.498C487.861 186.373 484.345 185.247 481.602 184.122C478.929 182.927 476.608 181.203 474.639 178.953C472.74 176.632 471.791 173.608 471.791 169.88C471.791 166.927 472.67 164.219 474.428 161.757C476.186 159.296 478.683 157.362 481.918 155.955C485.153 154.478 488.846 153.74 492.995 153.74C499.395 153.74 504.564 155.357 508.503 158.593C512.441 161.828 514.551 166.258 514.832 171.885H505.232C505.021 168.861 503.791 166.434 501.54 164.606C499.36 162.777 496.406 161.863 492.679 161.863C489.233 161.863 486.49 162.601 484.45 164.078C482.411 165.555 481.391 167.489 481.391 169.88C481.391 171.779 481.989 173.362 483.184 174.628C484.45 175.823 485.997 176.808 487.826 177.581C489.725 178.285 492.327 179.094 495.633 180.008C499.782 181.133 503.158 182.258 505.76 183.384C508.362 184.439 510.578 186.056 512.406 188.236C514.305 190.417 515.29 193.265 515.36 196.781C515.36 199.946 514.481 202.795 512.723 205.326C510.964 207.858 508.468 209.863 505.232 211.34C502.068 212.746 498.411 213.449 494.261 213.449Z" fill="black" style="fill:black;fill-opacity:1;"></path><path d="M540.622 162.601V196.676C540.622 199.489 541.219 201.493 542.415 202.689C543.611 203.814 545.685 204.377 548.639 204.377H555.707V212.5H547.057C541.712 212.5 537.703 211.269 535.03 208.808C532.358 206.346 531.022 202.302 531.022 196.676V162.601H523.532V154.689H531.022V140.131H540.622V154.689H555.707V162.601H540.622Z" fill="black" style="fill:black;fill-opacity:1;"></path><path d="M592.552 213.449C587.136 213.449 582.213 212.219 577.783 209.757C573.422 207.296 569.976 203.814 567.444 199.313C564.983 194.742 563.752 189.467 563.752 183.489C563.752 177.581 565.018 172.377 567.55 167.876C570.152 163.305 573.668 159.823 578.099 157.432C582.53 154.971 587.488 153.74 592.974 153.74C598.46 153.74 603.418 154.971 607.848 157.432C612.279 159.823 615.761 163.269 618.292 167.771C620.895 172.272 622.196 177.511 622.196 183.489C622.196 189.467 620.859 194.742 618.187 199.313C615.585 203.814 612.033 207.296 607.532 209.757C603.031 212.219 598.038 213.449 592.552 213.449ZM592.552 205.01C595.998 205.01 599.233 204.201 602.257 202.584C605.281 200.966 607.708 198.54 609.536 195.304C611.435 192.069 612.385 188.131 612.385 183.489C612.385 178.847 611.47 174.909 609.642 171.674C607.813 168.439 605.422 166.047 602.468 164.5C599.514 162.883 596.314 162.074 592.868 162.074C589.352 162.074 586.117 162.883 583.163 164.5C580.279 166.047 577.958 168.439 576.2 171.674C574.442 174.909 573.563 178.847 573.563 183.489C573.563 188.201 574.407 192.175 576.095 195.41C577.853 198.645 580.174 201.071 583.057 202.689C585.941 204.236 589.106 205.01 592.552 205.01Z" fill="black" style="fill:black;fill-opacity:1;"></path><path d="M256.684 208.671C255.13 208.671 253.724 208.317 252.467 207.609C251.21 206.877 250.205 205.837 249.451 204.489C248.719 203.118 248.354 201.449 248.354 199.484C248.354 197.519 248.719 195.862 249.451 194.513C250.182 193.142 251.176 192.102 252.433 191.394C253.69 190.685 255.107 190.331 256.684 190.331C258.398 190.331 259.929 190.719 261.278 191.496C262.649 192.251 263.723 193.325 264.5 194.719C265.277 196.09 265.666 197.679 265.666 199.484C265.666 201.312 265.277 202.912 264.5 204.283C263.723 205.655 262.649 206.729 261.278 207.506C259.929 208.283 258.398 208.671 256.684 208.671ZM247.394 215.151V190.502H249.725V195.919L249.485 199.518L249.828 203.152V215.151H247.394ZM256.513 206.512C257.792 206.512 258.935 206.226 259.941 205.655C260.946 205.06 261.746 204.238 262.34 203.186C262.935 202.112 263.232 200.878 263.232 199.484C263.232 198.09 262.935 196.867 262.34 195.816C261.746 194.765 260.946 193.942 259.941 193.348C258.935 192.753 257.792 192.456 256.513 192.456C255.233 192.456 254.079 192.753 253.05 193.348C252.045 193.942 251.245 194.765 250.651 195.816C250.079 196.867 249.794 198.09 249.794 199.484C249.794 200.878 250.079 202.112 250.651 203.186C251.245 204.238 252.045 205.06 253.05 205.655C254.079 206.226 255.233 206.512 256.513 206.512Z" fill="black" style="fill:black;fill-opacity:1;"></path><path d="M281.806 208.5V204.523L281.703 203.872V197.221C281.703 195.69 281.268 194.513 280.4 193.69C279.554 192.868 278.286 192.456 276.595 192.456C275.429 192.456 274.321 192.651 273.269 193.039C272.218 193.428 271.327 193.942 270.596 194.582L269.499 192.765C270.413 191.988 271.51 191.394 272.79 190.982C274.069 190.548 275.418 190.331 276.835 190.331C279.166 190.331 280.96 190.914 282.217 192.079C283.497 193.222 284.137 194.97 284.137 197.324V208.5H281.806ZM275.601 208.671C274.252 208.671 273.075 208.454 272.07 208.02C271.087 207.563 270.333 206.946 269.807 206.169C269.281 205.369 269.019 204.455 269.019 203.426C269.019 202.489 269.236 201.644 269.67 200.89C270.127 200.113 270.858 199.495 271.864 199.038C272.892 198.558 274.264 198.318 275.978 198.318H282.183V200.135H276.046C274.309 200.135 273.098 200.444 272.412 201.061C271.75 201.678 271.418 202.444 271.418 203.358C271.418 204.386 271.818 205.209 272.618 205.826C273.418 206.443 274.538 206.752 275.978 206.752C277.349 206.752 278.526 206.443 279.509 205.826C280.514 205.186 281.246 204.272 281.703 203.084L282.251 204.763C281.794 205.952 280.994 206.9 279.851 207.609C278.732 208.317 277.315 208.671 275.601 208.671Z" fill="black" style="fill:black;fill-opacity:1;"></path><path d="M290.748 208.5V190.502H293.079V195.405L292.839 194.548C293.341 193.176 294.187 192.136 295.376 191.428C296.564 190.697 298.038 190.331 299.798 190.331V192.696C299.706 192.696 299.615 192.696 299.524 192.696C299.432 192.673 299.341 192.662 299.249 192.662C297.352 192.662 295.867 193.245 294.793 194.41C293.719 195.553 293.182 197.187 293.182 199.313V208.5H290.748Z" fill="black" style="fill:black;fill-opacity:1;"></path><path d="M314.379 208.5V204.523L314.277 203.872V197.221C314.277 195.69 313.842 194.513 312.974 193.69C312.128 192.868 310.86 192.456 309.169 192.456C308.003 192.456 306.895 192.651 305.843 193.039C304.792 193.428 303.901 193.942 303.169 194.582L302.072 192.765C302.987 191.988 304.084 191.394 305.363 190.982C306.643 190.548 307.992 190.331 309.409 190.331C311.74 190.331 313.534 190.914 314.791 192.079C316.071 193.222 316.71 194.97 316.71 197.324V208.5H314.379ZM308.174 208.671C306.826 208.671 305.649 208.454 304.643 208.02C303.661 207.563 302.907 206.946 302.381 206.169C301.855 205.369 301.592 204.455 301.592 203.426C301.592 202.489 301.81 201.644 302.244 200.89C302.701 200.113 303.432 199.495 304.438 199.038C305.466 198.558 306.837 198.318 308.552 198.318H314.756V200.135H308.62C306.883 200.135 305.672 200.444 304.986 201.061C304.324 201.678 303.992 202.444 303.992 203.358C303.992 204.386 304.392 205.209 305.192 205.826C305.992 206.443 307.112 206.752 308.552 206.752C309.923 206.752 311.1 206.443 312.083 205.826C313.088 205.186 313.819 204.272 314.277 203.084L314.825 204.763C314.368 205.952 313.568 206.9 312.425 207.609C311.305 208.317 309.889 208.671 308.174 208.671Z" fill="black" style="fill:black;fill-opacity:1;"></path><path d="M179 61C179 59.3431 180.343 58 182 58C183.657 58 185 59.3431 185 61V106L179 94.5V61Z" fill="#1C64E3" style="fill:#1C64E3;fill:color(display-p3 0.1098 0.3922 0.8902);fill-opacity:1;"></path></svg>